<svg xmlns="http://www.w3.org/2000/svg" xml:space="preserve" width="190mm" height="190mm" viewBox="0 0 190 190"><path d="M124.9 145.2c-8.7 24-26.5 19.8-26.5 19.8l-18.9 1.7L40.1 152 25 131.4 13.4 117 11 76.8l18.5-37.7 21.1-11.8L76.3 16l18.5 3 15.2 7.3c-23.8 31.5-17.5 78 14.9 119" style="fill:#cca271;fill-opacity:1;stroke-width:10.3813;stroke-linecap:round;stroke-linejoin:round;stroke-dasharray:none;paint-order:stroke fill markers" transform="translate(-1.8)scale(1.03)"/><path d="M82.8 125.6q-1.2 0-2.5.4c-14.7 3.7-8.3 26.2 6 22.5 13.7-3.5 8.9-23.4-3.5-22.9m-27.7-14.9-2.6.1c-14.9 2.5-11.6 25.7 3.2 23.1 14-2.3 11.9-22.7-.6-23.2M43.8 81.6q-1.8-.1-3.8.4c-15 3.9-8.2 25.6 6.5 21.7 13.4-3.6 9-21.5-2.7-22m32.8-2.3-1.3.1C60 80.9 62 103.6 77 102.5c14.7-1.3 13.3-23-.5-23M51 50.2c-15.6.5-14.6 24.6.8 24s14.5-24.5-.9-24M79.7 33q-1.2 0-2.6.4c-15 3.7-9.5 26.6 5.5 23.1 14-3.2 9.7-23.9-2.9-23.4" style="display:inline;fill:#44280f;stroke:none;stroke-width:1.75655" transform="translate(-1.8)scale(1.03)"/><path d="M139.4 24.2c-6.7.4-13 2.2-18 6.3-11.4 9.1-14.6 28.6-3.9 39.4 7.1 7.2 17.2 9.7 26.3 13.4a31 31 0 0 1 13.4 8.4c1.4 1.7 2.9 4.5.7 6.2-2 1.7-5.5 1.5-8 1.6-8.2.2-15.4-6-23.4-7.7-18-3.8-28.9-.1-29.7 1.8-3.3 6.8-4.5 21.6 6 14.3 12.7-8.8 34.2 10.8 49.7 9 12.7-1.5 25-13.1 22.5-26.6-3-17.4-25.9-21.8-39-29-4-2.3-13.4-8.7-10.6-14.4 2.2-4.4 9.4-5.3 13.8-5.3 9.1.1 18 3.5 26 7.7 3.5 1.7 7.4 5.4 11.2 6.1 3.9.7 9.7-10.1 9.5-13.5-.3-5-10.3-9.1-14.2-10.9-9-4-21.1-7.5-32.3-6.8" style="display:inline;fill:#7f4b1c;fill-opacity:1;stroke:none;stroke-width:1.75655" transform="translate(-1.8)scale(1.03)"/><path d="M79.2 7.6q-7.8 0-15.1 3.4c-4.9 2.3-8.5 7.4-13.4 9.2-2.8 1-6.2 1-9.2 1.8A35 35 0 0 0 17 45.6c-.8 2.5-.7 5.6-2 8s-3.8 4.3-5.6 6.6a35 35 0 0 0-6.2 30.6c.7 2.8 2.6 5.5 2.8 8.4.2 2.8-1.2 5.8-1.5 8.7a33 33 0 0 0 11.9 29c2.2 1.8 5.1 3.1 7 5.3 2 2.5 2.7 6.3 4.4 9A36 36 0 0 0 57.3 168c2.7.1 5.8-.7 8.3.4 3.3 1.5 6 3.7 9.3 5a38 38 0 0 0 24.8.3c4.4-1.5 8-5.1 12.4-6.3 2.4-.6 9.4-1.7 18.2-11.8 4.6-3.9 6-3.5 7.7-9.4 3.2-10.7-3.8-16.8-9-19.3-6.9-3.4-16.5-5.5-21-11.7-2.4-3.1-5.2-6.9-.6-9l.1-.7c-4.3-3.6-6.7-8-9.5-12.8-11 7-12.4 20.8-5.4 31.3a44 44 0 0 0 11.3 10.2c4 2.3 10 4.5 16.3 7.6-2.6 4.7-5.6 8.1-12.7 9 0 0-6.2 4.6-9.6 6.1a25 25 0 0 1-22-1 58 58 0 0 1-6.5-4.7s-5.3 1.1-8.3 1.5c-3.6.4-7.8-.4-11.6-2.8-3.6-2.3-5.6-3.2-11.2-11.5-1.6-3.3-6.3-10.8-6.3-10.8s-7.9-5.1-9.5-10c-1.2-3.9-2.6-8-1.6-12l2.3-7.7-3.3-8c-1.7-4.2-2.2-9-1.3-13.4 1.7-7.8 10.2-10.6 10.2-10.6s1.3-6.4 2.1-9.5c1.7-6.1 3.2-13.3 8.7-16.5q4.4-2.6 9.6-3l8.3-.9s4.5-4.6 7-6.7c4.5-4 10.6-5.7 16.6-5.4q6.8.3 12.4 4l6.5 4.7s6.5 2.6 9 1c4.5-3 7.7-10.8 5-15.5-1.7-2.8-6.6-.6-9.6-1.7-3.6-1.4-6.4-4.3-10-5.8q-7.3-3-15.2-3" style="display:inline;fill:#44280f;stroke:none;stroke-width:1.75655" transform="translate(-1.8)scale(1.03)"/></svg>